#!OML:ASF I:\Actors\actors\Patient Classification 2\Patient 1\Session 1\actor1.ASF
:FULLY-SPECIFIED
:DEGREES
281
root -1.14715 18.5546 6.57787 -1.5488 4.03999 -4.74802
lowerback -0.343364 0.669029 8.22023
upperback 1.03718 0.77183 3.70763
thorax 1.32616 0.450118 -0.761388
lowerneck -9.79281 11.6024 13.5746
upperneck 18.2376 13.3249 1.15416
head 8.15563 7.35937 -0.33476
rclavicle 2.90723e-015 7.15625e-015
rhumerus -105.62 31.8089 -114.073
rradius 103.781
rwrist 9.7196
rhand -29.5748 -4.78885
rfingers 7.12502
rthumb -2.90682 -34.7488
lclavicle 2.90723e-015 7.15625e-015
lhumerus -98.484 -46.6907 126.358
lradius 96.0351
lwrist 21.1971
lhand -5.10667 -58.5057
lfingers 7.12502
lthumb 20.6909 -29.5886
rfemur 13.9535 -10.1716 18.1804
rtibia -3.97569e-014
rfoot -14.5045 -1.37634
rtoes -4.69721
lfemur -3.46436 -7.041 -8.08709
ltibia 25.533
lfoot -21.9799 6.40543
ltoes -58.4097
282
root -1.16115 18.5617 6.56217 -1.26951 4.27577 -4.71288
lowerback -0.0473711 0.500274 8.09883
upperback 1.12441 0.576785 3.63348
thorax 1.23467 0.351278 -0.776848
lowerneck -10.1147 11.7126 13.2643
upperneck 17.9485 13.4605 1.24904
head 8.08963 7.40011 -0.236226
rclavicle 8.49804e-015 4.92986e-014
rhumerus -104.294 32.2781 -111.966
rradius 103.779
rwrist 11.4391
rhand -28.2597 -3.28801
rfingers 7.12502
rthumb -1.63672 -33.2615
lclavicle 8.49804e-015 4.92986e-014
lhumerus -98.6831 -46.6954 126.3
lradius 96.1241
lwrist 20.886
lhand -5.07983 -58.5518
lfingers 7.12502
lthumb 20.7167 -29.6376
rfemur 13.6227 -10.4218 18.2315
rtibia -3.02153e-014
rfoot -14.4648 -1.37079
rtoes -4.81849
lfemur -3.87855 -7.05057 -8.01928
ltibia 25.5004
lfoot -21.8577 6.34854
ltoes -58.555
283
root -1.17436 18.5689 6.54549 -0.956681 4.36792 -4.75031
lowerback 0.202596 0.356191 8.01321
upperback 1.20483 0.40876 3.54743
thorax 1.16474 0.266744 -0.822051
lowerneck -10.3599 11.645 13.1897
upperneck 17.7352 13.3823 1.03986
head 8.063 7.33095 -0.296368
rclavicle 3.10601e-015 2.38542e-015
rhumerus -102.101 31.4692 -109.429
rradius 103.049
rwrist 14.5327
rhand -26.618 -1.57001
rfingers 7.12502
rthumb -0.0511732 -31.5497
lclavicle 3.10601e-015 2.38542e-015
lhumerus -99.0272 -46.5537 126.263
lradius 96.3337
lwrist 20.5488
lhand -5.07965 -58.6757
lfingers 7.12502
lthumb 20.7169 -29.7615
rfemur 13.2193 -10.5339 18.3898
rtibia 1.27222e-014
rfoot -14.4092 -1.40279
rtoes -4.79098
lfemur -4.29863 -6.93751 -7.86869
ltibia 25.4626
lfoot -21.7262 6.3487
ltoes -58.7478
284
root -1.18629 18.5742 6.52932 -0.664964 4.27577 -4.84826
lowerback 0.458523 0.198355 7.94314
upperback 1.32594 0.219277 3.46109
thorax 1.1322 0.173583 -0.874852
lowerneck -10.6183 11.5174 13.2804
upperneck 17.7231 13.2323 0.609356
head 8.13024 7.2236 -0.451445
rclavicle 5.81445e-015 2.38542e-015
rhumerus -99.7599 31.6085 -106.452
rradius 102.591
rwrist 16.8506
rhand -24.4995 0.153541
rfingers 7.12502
rthumb 1.99492 -29.8169
lclavicle 5.81445e-015 2.38542e-015
lhumerus -99.2953 -46.2432 126.095
lradius 96.585
lwrist 20.2052
lhand -5.22149 -58.8901
lfingers 7.12502
lthumb 20.5806 -29.9611
rfemur 12.8119 -10.463 18.6289
rtibia -1.27222e-014
rfoot -14.3698 -1.46931
rtoes -4.87819
lfemur -4.62111 -6.75217 -7.6598
ltibia 25.3998
lfoot -21.6501 6.35149
ltoes -58.8314
285
root -1.19766 18.5794 6.50986 -0.391567 3.98046 -4.91627
lowerback 0.824307 0.0219446 7.80395
upperback 1.46576 0.015388 3.34593
thorax 1.05574 0.0716177 -0.918133
lowerneck -11 11.3838 12.8505
upperneck 17.8269 13.035 0.778079
head 8.17484 7.11728 -0.339426
rclavicle -9.93923e-015 1.66979e-014
rhumerus -97.1543 32.7437 -102.91
rradius 102.285
rwrist 18.2795
rhand -21.6752 2.82269
rfingers 7.12502
rthumb 4.72239 -27.1047
lclavicle -9.93923e-015 1.66979e-014
lhumerus -99.0431 -45.8406 125.388
lradius 96.8444
lwrist 19.0646
lhand -5.28379 -58.7807
lfingers 7.12502
lthumb 20.5207 -29.8453
rfemur 12.3908 -10.1877 18.8456
rtibia -1.27222e-014
rfoot -14.3406 -1.58479
rtoes -5.11253
lfemur -4.81438 -6.6891 -7.52168
ltibia 25.2894
lfoot -21.7188 6.54667
ltoes -58.772
